<svg width="143" height="38" viewBox="0 0 143 38" fill="none" xmlns="http://www.w3.org/2000/svg">
<path fill-rule="evenodd" clip-rule="evenodd" d="M43.1791 27.2171C42.6575 27.0182 42.3159 26.5972 42.3159 26.0358C42.3159 25.3562 42.8773 24.796 43.5604 24.796C43.7616 24.796 43.923 24.8357 44.0633 24.8954C44.9948 25.3249 46.0096 25.5438 47.0353 25.5363C49.1255 25.5363 50.1091 24.5363 50.1091 22.6135V22.093C49.205 23.1749 48.2213 23.8357 46.5944 23.8357C44.0832 23.8357 41.813 22.0134 41.813 18.8297V18.7911C41.813 15.5875 44.123 13.7863 46.5944 13.7863C48.2611 13.7863 49.2448 14.4881 50.0682 15.3887V15.3677C50.0682 14.5466 50.7512 13.867 51.5957 13.867C52.4378 13.867 53.1209 14.5466 53.1209 15.3875V22.2941C53.1209 24.2158 52.6601 25.6159 51.7559 26.5165C50.7512 27.5188 49.205 27.9586 47.1161 27.9586C45.7679 27.9704 44.4305 27.7185 43.1791 27.2171ZM50.1091 18.8309V18.7911C50.1091 17.3291 48.9629 16.308 47.4775 16.308C45.992 16.308 44.8669 17.3291 44.8669 18.7911V18.8309C44.8669 20.3116 45.992 21.3128 47.4775 21.3128C48.9629 21.3128 50.1091 20.2918 50.1091 18.8309ZM54.8496 15.3875C54.8496 14.5466 55.5327 13.867 56.3759 13.867C57.2204 13.867 57.9023 14.5466 57.9023 15.3875V15.8671C58.3444 14.8273 59.0672 13.867 59.9725 13.867C60.9164 13.867 61.458 14.4869 61.458 15.3478C61.458 16.1478 60.9363 16.6285 60.3129 16.7689C58.7667 17.1303 57.9035 18.3104 57.9035 20.4719V23.3141C57.9035 24.155 57.2204 24.8357 56.3759 24.8357C56.1759 24.8362 55.9777 24.7972 55.7926 24.721C55.6076 24.6449 55.4394 24.533 55.2977 24.3918C55.1559 24.2506 55.0434 24.0828 54.9665 23.8981C54.8896 23.7134 54.8499 23.5153 54.8496 23.3152V15.3875ZM61.0965 21.6333V21.5935C61.0965 19.2508 62.8837 18.1701 65.4358 18.1701C66.5201 18.1701 67.3037 18.3502 68.0675 18.6098V18.4297C68.0675 17.17 67.2838 16.4683 65.7575 16.4683C65.043 16.4606 64.3315 16.562 63.6475 16.7689C63.5063 16.8212 63.3571 16.8485 63.2065 16.8496C63.0415 16.8527 62.8774 16.8228 62.724 16.7618C62.5706 16.7008 62.4309 16.6098 62.3131 16.4941C62.1952 16.3785 62.1016 16.2405 62.0377 16.0882C61.9739 15.936 61.941 15.7725 61.941 15.6074C61.941 15.0671 62.2802 14.6074 62.7644 14.4261C63.7282 14.0659 64.7727 13.867 66.1984 13.867C67.8651 13.867 69.071 14.3068 69.8336 15.0671C70.6371 15.8671 70.9997 17.0496 70.9997 18.4905V23.3737C70.9997 24.1948 70.3366 24.8357 69.5131 24.8357C68.6289 24.8357 68.0464 24.2158 68.0464 23.5749V23.5538C67.3037 24.3749 66.2803 24.9153 64.7925 24.9153C62.7644 24.9153 61.0965 23.755 61.0965 21.6333ZM68.1073 20.9315V20.3923C67.4933 20.1226 66.8292 19.9858 66.1587 19.9912C64.8522 19.9912 64.0498 20.5116 64.0498 21.4731V21.5128C64.0498 22.3339 64.7329 22.8146 65.7165 22.8146C67.1435 22.8146 68.1073 22.0333 68.1073 20.9315ZM72.6267 15.3875C72.6267 14.5466 73.3097 13.867 74.1542 13.867C74.9975 13.867 75.6806 14.5466 75.6806 15.3875V15.508C76.3823 14.6074 77.3075 13.7863 78.8537 13.7863C80.2596 13.7863 81.324 14.4062 81.8866 15.4881C82.8305 14.3875 83.9568 13.7863 85.4212 13.7863C87.6914 13.7863 89.0587 15.1478 89.0587 17.7303V23.3141C89.0587 24.155 88.3745 24.8357 87.5312 24.8357C87.331 24.8362 87.1328 24.7972 86.9477 24.7211C86.7626 24.6449 86.5943 24.533 86.4525 24.3918C86.3106 24.2507 86.198 24.0829 86.121 23.8982C86.044 23.7135 86.0041 23.5154 86.0036 23.3152V18.7303C86.0036 17.2893 85.3603 16.549 84.2164 16.549C83.0714 16.549 82.3684 17.2893 82.3684 18.7303V23.3152C82.3684 24.155 81.6866 24.8357 80.8421 24.8357C80.4381 24.8364 80.0504 24.6765 79.7642 24.3914C79.478 24.1063 79.3167 23.7192 79.3157 23.3152V18.7303C79.3157 17.2893 78.6725 16.549 77.5286 16.549C76.3823 16.549 75.6806 17.2893 75.6806 18.7303V23.3152C75.6806 24.155 74.9975 24.8357 74.1542 24.8357C73.954 24.8364 73.7557 24.7975 73.5705 24.7214C73.3854 24.6453 73.2171 24.5334 73.0752 24.3922C72.9333 24.251 72.8207 24.0832 72.7437 23.8984C72.6667 23.7136 72.627 23.5154 72.6267 23.3152V15.3875ZM90.7055 15.3875C90.7055 14.5466 91.3886 13.867 92.2319 13.867C93.0763 13.867 93.7594 14.5466 93.7594 15.3875V15.508C94.4612 14.6074 95.3852 13.7863 96.9326 13.7863C98.3385 13.7863 99.4028 14.4062 99.9654 15.4881C100.909 14.3875 102.034 13.7863 103.5 13.7863C105.77 13.7863 107.136 15.1478 107.136 17.7303V23.3141C107.136 24.155 106.453 24.8357 105.609 24.8357C105.205 24.8364 104.817 24.6765 104.531 24.3914C104.245 24.1063 104.083 23.7192 104.082 23.3152V18.7303C104.082 17.2893 103.439 16.549 102.295 16.549C101.149 16.549 100.447 17.2893 100.447 18.7303V23.3152C100.447 24.155 99.7642 24.8357 98.9209 24.8357C98.7209 24.8362 98.5226 24.7972 98.3376 24.721C98.1526 24.6449 97.9844 24.533 97.8427 24.3918C97.7009 24.2506 97.5884 24.0828 97.5115 23.8981C97.4346 23.7134 97.3949 23.5153 97.3946 23.3152V18.7303C97.3946 17.2893 96.7513 16.549 95.6062 16.549C94.4612 16.549 93.7582 17.2893 93.7582 18.7303V23.3152C93.7582 24.155 93.0763 24.8357 92.2319 24.8357C92.0318 24.8362 91.8336 24.7972 91.6486 24.721C91.4636 24.6449 91.2954 24.533 91.1536 24.3918C91.0119 24.2506 90.8993 24.0828 90.8224 23.8981C90.7456 23.7134 90.7058 23.5153 90.7055 23.3152V15.3875ZM108.141 21.6333V21.5935C108.141 19.2508 109.929 18.1701 112.48 18.1701C113.376 18.162 114.266 18.3108 115.111 18.6098V18.4297C115.111 17.17 114.327 16.4683 112.801 16.4683C111.958 16.4683 111.274 16.5887 110.692 16.7689C110.551 16.8212 110.402 16.8485 110.251 16.8496C110.086 16.853 109.922 16.8234 109.768 16.7625C109.614 16.7016 109.474 16.6106 109.356 16.4949C109.238 16.3792 109.145 16.2411 109.081 16.0887C109.017 15.9363 108.984 15.7727 108.984 15.6074C108.984 15.0671 109.327 14.6074 109.808 14.4261C110.773 14.0659 111.817 13.867 113.243 13.867C114.911 13.867 116.116 14.3068 116.878 15.0671C117.682 15.8671 118.043 17.0496 118.043 18.4905V23.3737C118.043 23.5677 118.005 23.7597 117.93 23.9387C117.855 24.1176 117.745 24.2798 117.607 24.4159C117.468 24.552 117.304 24.6591 117.124 24.7312C116.944 24.8033 116.752 24.8388 116.558 24.8357C115.673 24.8357 115.091 24.2158 115.091 23.5749V23.5538C114.348 24.3749 113.322 24.9153 111.837 24.9153C109.808 24.9153 108.141 23.755 108.141 21.6333ZM115.152 20.9315V20.3923C114.538 20.1226 113.874 19.9859 113.203 19.9912C111.897 19.9912 111.094 20.5116 111.094 21.4731V21.5128C111.094 22.3339 111.776 22.8146 112.761 22.8146C114.187 22.8146 115.152 22.0333 115.152 20.9315ZM119.671 15.3875C119.671 14.5466 120.354 13.867 121.198 13.867C122.042 13.867 122.724 14.5466 122.724 15.3875V15.8671C123.166 14.8273 123.889 13.867 124.794 13.867C125.737 13.867 126.28 14.4869 126.28 15.3478C126.28 16.1478 125.757 16.6285 125.134 16.7689C123.588 17.1303 122.724 18.3104 122.724 20.4719V23.3141C122.724 24.155 122.042 24.8357 121.198 24.8357C120.794 24.8364 120.406 24.6765 120.12 24.3914C119.833 24.1063 119.672 23.7192 119.671 23.3152V15.3875ZM127.204 11.5044C127.204 10.6623 127.887 9.98389 128.73 9.98389C129.574 9.98389 130.257 10.6623 130.257 11.5044V23.3141C130.257 24.155 129.574 24.8357 128.73 24.8357C128.326 24.8364 127.938 24.6765 127.652 24.3914C127.366 24.1063 127.204 23.7192 127.204 23.3152V11.5032V11.5044ZM132.688 27.6978C132.246 27.5387 131.723 27.1773 131.723 26.4381C131.72 26.2771 131.748 26.117 131.807 25.9671C131.866 25.8173 131.954 25.6806 132.066 25.565C132.179 25.4495 132.313 25.3574 132.461 25.294C132.609 25.2307 132.768 25.1973 132.929 25.196C133.17 25.196 133.31 25.2357 133.431 25.2767C133.691 25.3562 133.853 25.3972 134.074 25.3972C134.615 25.3972 134.877 25.2966 135.158 24.7562L135.259 24.5153L131.584 16.0285C131.492 15.805 131.437 15.5679 131.422 15.3267C131.422 14.467 132.086 13.867 132.929 13.867C133.691 13.867 134.134 14.2869 134.394 15.0074L136.725 21.2532L138.975 15.0273C139.216 14.3875 139.657 13.867 140.441 13.867C141.224 13.867 141.886 14.467 141.886 15.2682C141.886 15.508 141.806 15.8484 141.747 15.9887L137.99 24.9761C137.086 27.1574 136.183 27.9785 134.355 27.9785C133.672 27.9785 133.19 27.8791 132.688 27.6978Z" fill="white"/>
<path fill-rule="evenodd" clip-rule="evenodd" d="M33.3646 19.3389C33.3646 28.5204 25.8954 35.9639 16.6823 35.9639C7.4692 35.9639 0 28.5204 0 19.3389C0 10.1573 7.4692 2.71387 16.6823 2.71387C25.8954 2.71387 33.3646 10.1573 33.3646 19.3389Z" fill="white"/>
<path fill-rule="evenodd" clip-rule="evenodd" d="M18.8628 22.929C18.961 23.4729 19.4745 23.846 20.0301 23.846H21.7775L22.7904 23.7056C21.1693 26.0753 18.3552 27.1654 15.2779 26.6847C12.7726 26.2928 10.6205 24.6027 9.71167 22.2436C7.65079 16.8879 11.5749 11.7755 16.6896 11.7755C19.3552 11.7755 21.6921 13.3299 23.0325 15.2072C23.3881 15.7183 24.0945 15.9054 24.608 15.551C24.8412 15.3931 25.0058 15.1524 25.0683 14.8777C25.1308 14.603 25.0867 14.3148 24.9448 14.0715C23.9948 12.592 22.6642 11.3955 21.0926 10.6073C19.521 9.81913 17.7663 9.46837 16.0124 9.59181C11.1351 9.91813 7.18762 13.896 6.90691 18.7593C6.58176 24.4203 11.086 29.0403 16.6896 29.0403C18.0868 29.046 19.4688 28.7503 20.7413 28.1732C22.0138 27.5961 23.1468 26.7513 24.0629 25.6963L23.8501 26.8823V27.9537C23.8501 28.5058 24.2243 29.0181 24.7705 29.1163C24.9336 29.147 25.1015 29.1415 25.2622 29.1001C25.4228 29.0587 25.5725 28.9824 25.7004 28.8767C25.8283 28.771 25.9314 28.6384 26.0023 28.4884C26.0733 28.3384 26.1104 28.1746 26.1109 28.0087V21.5921H19.9739C19.8079 21.5919 19.6439 21.6282 19.4935 21.6986C19.3432 21.769 19.2102 21.8717 19.1041 21.9994C18.998 22.127 18.9213 22.2765 18.8796 22.4372C18.8379 22.5979 18.8322 22.7658 18.8628 22.929Z" fill="#15C39A"/>
</svg>
