<svg width="142" height="28" viewBox="0 0 142 28" fill="none" xmlns="http://www.w3.org/2000/svg">
<path d="M140.738 13.0118C141.572 13.8961 141.991 15.095 141.991 16.614V24.605H138.899V17.52C138.899 16.6249 138.646 15.9196 138.141 15.4042C137.635 14.8889 136.952 14.6285 136.087 14.6285C135.065 14.6448 134.253 14.9974 133.656 15.6809C133.059 16.3645 132.758 17.2433 132.758 18.312V24.605H129.687V6.84909H132.758V14.2433C133.624 12.567 135.145 11.7153 137.318 11.6827C138.759 11.6827 139.905 12.1221 140.738 13.0118ZM122.857 14.4332C121.835 14.4332 121.002 14.7858 120.367 15.4856C119.733 16.1909 119.41 17.0968 119.41 18.2144C119.41 19.3645 119.733 20.2867 120.367 20.9919C121.007 21.6918 121.835 22.0444 122.862 22.0444C124.374 22.0444 125.508 21.5399 126.267 20.5363L128.181 22.142C127.616 22.9721 126.842 23.6339 125.939 24.057C125.008 24.5019 123.933 24.7243 122.701 24.7243C121.459 24.7243 120.351 24.4531 119.383 23.9106C118.431 23.3844 117.646 22.5869 117.13 21.6267C116.592 20.6448 116.323 19.5164 116.323 18.2415C116.323 16.9504 116.597 15.8057 117.14 14.8184C117.662 13.8473 118.453 13.0552 119.41 12.5236C120.378 11.9811 121.491 11.7099 122.755 11.7099C123.906 11.7099 124.933 11.9106 125.836 12.3174C126.74 12.7243 127.477 13.3048 128.047 14.0534L126.181 15.8491C125.315 14.9052 124.212 14.4332 122.857 14.4332ZM114.36 11.8021V24.605H111.289V22.5706C110.854 23.2542 110.246 23.8129 109.531 24.1872C108.815 24.5616 107.993 24.7514 107.062 24.7514C105.863 24.7514 104.814 24.4748 103.906 23.9269C103.002 23.3789 102.292 22.6032 101.792 21.605C101.292 20.6068 101.039 19.4621 101.039 18.171C101.039 16.8961 101.292 15.7677 101.797 14.7858C102.298 13.8039 103.007 13.0444 103.911 12.5019C104.814 11.9594 105.858 11.6882 107.041 11.6882C107.971 11.6882 108.799 11.878 109.52 12.2523C110.241 12.6267 110.854 13.18 111.289 13.869V11.8129L114.36 11.8021ZM110.176 21.1927C110.821 20.5634 111.192 19.7279 111.289 18.6918V17.7858C111.192 16.7442 110.827 15.9142 110.181 15.2849C109.536 14.6556 108.719 14.341 107.724 14.341C106.67 14.341 105.809 14.7044 105.148 15.4314C104.486 16.1583 104.148 17.0968 104.131 18.2415C104.148 19.3916 104.486 20.3247 105.148 21.0516C105.809 21.7786 106.67 22.142 107.724 22.142C108.713 22.142 109.531 21.8274 110.176 21.1927ZM97.9469 13.4513C98.9633 14.6176 99.4688 16.2505 99.4688 18.3554C99.4688 18.7677 99.458 19.0824 99.4473 19.2885H90.1167C90.3211 20.1999 90.7405 20.9106 91.3805 21.4314C92.0151 21.9522 92.8002 22.2071 93.7306 22.2071C94.3652 22.2071 94.9998 22.0824 95.586 21.8328C96.1722 21.5941 96.6992 21.2306 97.1348 20.7695L98.7858 22.5164C98.1458 23.227 97.3607 23.7804 96.4787 24.1438C95.5752 24.529 94.5696 24.7189 93.4671 24.7189C92.1764 24.7189 91.0363 24.4476 90.0522 23.9052C89.0895 23.3844 88.2936 22.5869 87.7719 21.6212C87.2342 20.6393 86.9706 19.5109 86.9706 18.2361C86.9706 16.9612 87.2395 15.8274 87.7881 14.8401C88.3151 13.869 89.1057 13.0661 90.0683 12.529C91.0471 11.9757 92.1549 11.7044 93.3972 11.7044C95.4139 11.7044 96.9304 12.2903 97.9469 13.4513ZM96.6615 17.2108C96.6293 16.2668 96.3227 15.5182 95.7419 14.9594C95.1611 14.4006 94.3867 14.1185 93.4241 14.1185C92.526 14.1185 91.7731 14.3952 91.1654 14.9431C90.5577 15.491 90.1866 16.2451 90.0414 17.2053H96.6615V17.2108ZM83.631 12.3663C84.3624 11.9269 85.2175 11.699 86.1962 11.6827V14.699C84.8894 14.6176 83.8461 14.9269 83.0663 15.6212C82.2865 16.3156 81.894 17.2542 81.894 18.4314V24.605H78.8232V11.8021H81.894V14.265C82.3242 13.435 82.8996 12.8003 83.631 12.3663ZM76.5215 23.8129C75.5158 24.4368 74.4564 24.746 73.3539 24.746C72.2676 24.746 71.3749 24.4205 70.6865 23.775C69.9928 23.1294 69.6486 22.1746 69.6486 20.916V8.8075L72.6978 8.4386V12.3229H76.3117V14.5959H72.6978V20.3681C72.6978 20.9594 72.8054 21.3771 73.0259 21.6212C73.2464 21.8708 73.5744 21.9901 74.0154 21.9901C74.4887 21.9901 75.0856 21.8165 75.8116 21.4639L76.5215 23.8129ZM63.9588 11.8021H67.0081V18.9793C67.0081 23.1674 64.1202 24.7243 61.1892 24.7243C58.2583 24.7243 55.3758 23.1674 55.3758 18.9793V11.8021H58.425V19.0878C58.425 20.6936 59.6081 21.9956 61.1946 21.9956C62.7811 21.9956 63.9642 20.6936 63.9642 19.0878L63.9588 11.8021ZM49.0568 8.7641C50.3744 9.48562 51.4714 10.5543 52.2351 11.8509C53.0095 13.1583 53.3913 14.6122 53.3913 16.2071C53.3913 17.8021 53.0041 19.256 52.2351 20.5742C51.4714 21.8816 50.3744 22.9612 49.0568 23.699C47.7069 24.4639 46.2173 24.8491 44.577 24.8491C42.9368 24.8491 41.4471 24.4639 40.1027 23.699C38.7851 22.9612 37.688 21.8816 36.9243 20.5742C36.1553 19.256 35.7681 17.8021 35.7681 16.2071C35.7681 14.6122 36.1553 13.1583 36.9243 11.8509C37.688 10.5489 38.7851 9.48562 40.1027 8.7641C41.4471 8.01546 42.9422 7.64114 44.577 7.64114C46.2173 7.63571 47.7123 8.01003 49.0568 8.7641ZM41.8182 11.265C40.9631 11.7533 40.2532 12.4639 39.7639 13.3211C39.2583 14.1945 39.0056 15.1547 39.0056 16.2071C39.0056 17.2596 39.2637 18.2252 39.7746 19.1041C40.2694 19.9666 40.9792 20.6827 41.8289 21.1872C42.6894 21.6972 43.6198 21.9522 44.6308 21.9522C45.6042 21.9576 46.5615 21.6918 47.395 21.1872C48.2393 20.6827 48.9331 19.9666 49.4171 19.1041C49.9172 18.2198 50.17 17.2216 50.1592 16.2071C50.1592 15.1547 49.9119 14.1945 49.4171 13.3211C48.9385 12.4693 48.2393 11.7587 47.395 11.265C46.5561 10.7659 45.6042 10.5055 44.6308 10.5109C43.6413 10.5055 42.6733 10.7659 41.8182 11.265ZM12.6272 0.458496C16.9779 0.458496 23.5496 1.80931 26.6042 4.90696C27.3787 5.69358 28.3951 7.22884 28.3951 9.48562C28.3951 13.4892 25.206 19.6357 21.6889 23.2053C19.8712 25.0498 16.9779 27.4585 13.0843 27.4585C9.2768 27.4585 6.37276 24.8437 5.53381 23.9865C2.3071 20.7207 0 15.7623 0 11.1457C0 8.22703 0.822812 5.6773 2.9148 3.55615C4.85082 1.59774 8.19047 0.458496 12.6272 0.458496ZM18.0104 16.435C19.4786 14.9486 19.8765 13.1149 19.8765 12.1059C19.8765 11.3735 19.6883 10.3048 18.7848 9.38797C17.4027 7.98291 15.8647 7.58689 14.1975 7.58689C12.084 7.58689 10.6643 8.26501 9.71778 9.2198C8.97564 9.97929 8.33567 11.1294 8.33567 12.7731C8.33567 14.4115 9.20151 15.9956 10.1373 16.9504C11.0085 17.8292 12.3744 18.4802 13.7458 18.4802C15.1225 18.4802 16.5423 17.9214 18.0104 16.435Z" fill="white"/>
</svg>
