<svg width="21" height="24" viewBox="0 0 21 24" fill="none" xmlns="http://www.w3.org/2000/svg">
<path d="M9 5.01562C9 4.73438 8.71875 4.45312 8.4375 4.45312H6.5625C6.23438 4.45312 6 4.73438 6 5.01562V6.89062C6 7.21875 6.23438 7.45312 6.5625 7.45312H8.4375C8.71875 7.45312 9 7.21875 9 6.89062V5.01562ZM14.4375 4.45312H12.5625C12.2344 4.45312 12 4.73438 12 5.01562V6.89062C12 7.21875 12.2344 7.45312 12.5625 7.45312H14.4375C14.7188 7.45312 15 7.21875 15 6.89062V5.01562C15 4.73438 14.7188 4.45312 14.4375 4.45312ZM8.4375 8.95312H6.5625C6.23438 8.95312 6 9.23438 6 9.51562V11.3906C6 11.7188 6.23438 11.9531 6.5625 11.9531H8.4375C8.71875 11.9531 9 11.7188 9 11.3906V9.51562C9 9.23438 8.71875 8.95312 8.4375 8.95312ZM14.4375 8.95312H12.5625C12.2344 8.95312 12 9.23438 12 9.51562V11.3906C12 11.7188 12.2344 11.9531 12.5625 11.9531H14.4375C14.7188 11.9531 15 11.7188 15 11.3906V9.51562C15 9.23438 14.7188 8.95312 14.4375 8.95312ZM8.4375 13.4531H6.5625C6.23438 13.4531 6 13.7344 6 14.0156V15.8906C6 16.2188 6.23438 16.4531 6.5625 16.4531H8.4375C8.71875 16.4531 9 16.2188 9 15.8906V14.0156C9 13.7344 8.71875 13.4531 8.4375 13.4531ZM14.4375 13.4531H12.5625C12.2344 13.4531 12 13.7344 12 14.0156V15.8906C12 16.2188 12.2344 16.4531 12.5625 16.4531H14.4375C14.7188 16.4531 15 16.2188 15 15.8906V14.0156C15 13.7344 14.7188 13.4531 14.4375 13.4531ZM21 23.0625C21 22.7812 20.7188 22.5 20.4375 22.5H19.5V1.125C19.5 0.515625 18.9844 0 18.375 0H2.625C1.96875 0 1.5 0.515625 1.5 1.125V22.5H0.5625C0.234375 22.5 0 22.7812 0 23.0625V24H21V23.0625ZM18 22.5H12V18.5156C12 18.2344 11.7188 17.9531 11.4375 17.9531H9.5625C9.23438 17.9531 9 18.2344 9 18.5156V22.5H3V1.5H18V22.5Z" fill="#292944"/>
</svg>
