<svg width="23" height="16" viewBox="0 0 23 16" fill="none" xmlns="http://www.w3.org/2000/svg">
<path d="M5.92188 7.79688C4.85547 7.79688 4.11719 8.49414 4.11719 9.4375C4.11719 10.4219 4.85547 11.0781 5.92188 11.0781H6.33203C7.97266 11.0781 8.21875 10.2578 8.21875 9.76562C8.21875 8.78125 6.90625 7.79688 5.92188 7.79688ZM6.33203 10.0938C6.20898 10.0938 6.04492 10.0938 5.92188 10.0938C5.42969 10.0938 5.10156 9.84766 5.10156 9.4375C5.10156 9.06836 5.42969 8.78125 5.92188 8.78125C6.45508 8.78125 7.23438 9.39648 7.23438 9.76562C7.23438 10.0938 6.7832 10.0938 6.33203 10.0938ZM17.0371 7.79688C16.0527 7.79688 14.7812 8.78125 14.7812 9.76562C14.7812 10.2578 14.9863 11.1191 16.627 11.1191L17.0371 11.0781C18.1035 11.0781 18.8828 10.4219 18.8828 9.4375C18.8418 8.49414 18.1035 7.79688 17.0371 7.79688ZM17.0371 10.0938C16.9141 10.0938 16.75 10.0938 16.627 10.0938C16.1758 10.0938 15.7246 10.0938 15.7246 9.76562C15.7246 9.39648 16.5039 8.78125 17.0371 8.78125C17.5293 8.78125 17.8574 9.06836 17.8574 9.4375C17.8574 9.84766 17.5293 10.0938 17.0371 10.0938ZM21.7129 4.31055C21.4258 3.85938 20.8926 3.53125 20.3184 3.53125H18.3086L17.9805 2.54688C17.5293 1.19336 16.2578 0.25 14.8633 0.25H8.0957C6.70117 0.25 5.42969 1.19336 4.97852 2.54688L4.65039 3.53125H2.64062C2.06641 3.53125 1.5332 3.85938 1.24609 4.31055C0.917969 4.80273 0.917969 5.41797 1.16406 5.91016L1.41016 6.40234C1.57422 6.73047 1.7793 6.97656 2.10742 7.18164C1.82031 7.63281 1.65625 8.20703 1.65625 8.78125V14.0312C1.65625 15.1387 2.51758 16 3.625 16H4.28125C5.34766 16 6.25 15.1387 6.25 14.0312V13.375H16.75V14.0312C16.75 15.1387 17.6113 16 18.7188 16H19.375C20.4414 16 21.3438 15.1387 21.3438 14.0312V8.78125C21.3438 8.20703 21.1387 7.63281 20.8516 7.18164C21.1797 6.97656 21.4258 6.73047 21.5488 6.40234L21.7949 5.91016C22.041 5.41797 22.041 4.80273 21.7129 4.31055ZM6.25 2.95703C6.49609 2.13672 7.27539 1.5625 8.0957 1.5625H14.8633C15.7246 1.5625 16.4629 2.13672 16.709 2.95703L17.5703 5.5H5.38867L6.25 2.95703ZM2.55859 5.82812L2.3125 5.33594C2.27148 5.17188 2.3125 5.04883 2.35352 5.00781C2.39453 4.9668 2.47656 4.84375 2.64062 4.84375H4.24023L3.95312 5.66406C3.625 5.78711 3.29688 5.95117 3.00977 6.15625C2.8457 6.11523 2.64062 5.99219 2.55859 5.82812ZM4.9375 14.0312C4.9375 14.4004 4.60938 14.6875 4.28125 14.6875H3.625C3.25586 14.6875 2.96875 14.4004 2.96875 14.0312V13.375H4.9375V14.0312ZM19.9902 14.0312C19.9902 14.4004 19.7031 14.6875 19.334 14.6875H18.6777C18.3496 14.6875 18.0215 14.4004 18.0215 14.0312V13.375H19.9902V14.0312ZM19.9902 10.75V12.0625H2.96875V8.78125C2.96875 7.71484 3.83008 6.8125 4.9375 6.8125H18.0215C19.1289 6.8125 19.9902 7.71484 19.9902 8.78125V10.75ZM20.6465 5.33594L20.4004 5.82812C20.3184 5.99219 20.1133 6.11523 19.9492 6.15625C19.6621 5.95117 19.334 5.78711 19.0059 5.66406L18.7188 4.84375H20.3184C20.4824 4.84375 20.5645 4.9668 20.6055 5.00781C20.6465 5.04883 20.6875 5.17188 20.6465 5.33594Z" fill="#292944"/>
</svg>
