<?xml version="1.0" encoding="UTF-8"?>
<!-- Created with Inkscape (http://www.inkscape.org/) -->
<svg width="4.6137mm" height="4.8037mm" version="1.1" viewBox="0 0 4.6137 4.8037" xmlns="http://www.w3.org/2000/svg">
 <defs>
  <clipPath id="clipPath1032">
   <rect x=".88857" y="-2.5173" width="25.261" height="23.61" style="fill:#7038a6;stroke-width:.97896;stroke:#9683b6"/>
  </clipPath>
 </defs>
 <g transform="translate(-10.55 -16.289)">
  <path d="m12.857 16.289c-1.2743 0-2.3068 1.0418-2.3068 2.3068 0 1.2743 1.0325 2.3068 2.3068 2.3068 1.265 0 2.3068-1.0325 2.3068-2.3068 0-1.265-1.0418-2.3068-2.3068-2.3068zm0 4.316c-1.1069 0-2.0092-0.89297-2.0092-2.0092 0-1.0976 0.89297-2.0092 2.0092-2.0092 1.0976 0 2.0092 0.90227 2.0092 2.0092 0 1.1069-0.90228 2.0092-2.0092 2.0092zm1.3115-2.5487c0.04651-0.04651 0.04651-0.12092 0-0.15813l-0.0744-0.08371c-0.04651-0.04651-0.12091-0.04651-0.15814 0l-1.5255 1.5069-0.64182-0.64182c-0.03721-0.04651-0.11162-0.04651-0.15813 0l-0.07441 0.07441c-0.04651 0.0465-0.04651 0.11161 0 0.15812l0.79995 0.80926c0.03721 0.0372 0.11162 0.0372 0.15813 0zm-1.3115 7.7577c-1.2743 0-2.3068 1.0418-2.3068 2.3068 0 1.2743 1.0325 2.3068 2.3068 2.3068 1.265 0 2.3068-1.0325 2.3068-2.3068 0-1.265-1.0418-2.3068-2.3068-2.3068zm0 4.316c-1.1069 0-2.0092-0.89297-2.0092-2.0092 0-1.0976 0.89297-2.0092 2.0092-2.0092 1.0976 0 2.0092 0.90228 2.0092 2.0092s-0.90228 2.0092-2.0092 2.0092zm1.3115-2.5487c0.04651-0.04649 0.04651-0.12092 0-0.15812l-0.0744-0.08371c-0.04651-0.04651-0.12091-0.04651-0.15814 0l-1.5255 1.5069-0.64182-0.64183c-0.03721-0.04651-0.11162-0.04651-0.15813 0l-0.07441 0.07443c-0.04651 0.04649-0.04651 0.1116 0 0.15812l0.79995 0.80926c0.03721 0.0372 0.11162 0.0372 0.15813 0zm-1.3115 7.7577c-1.2743 0-2.3068 1.0418-2.3068 2.3068 0 1.2743 1.0325 2.3068 2.3068 2.3068 1.265 0 2.3068-1.0325 2.3068-2.3068 0-1.265-1.0418-2.3068-2.3068-2.3068zm0 4.316c-1.1069 0-2.0092-0.89297-2.0092-2.0092 0-1.0976 0.89297-2.0092 2.0092-2.0092 1.0976 0 2.0092 0.90228 2.0092 2.0092 0 1.1069-0.90228 2.0092-2.0092 2.0092zm1.3115-2.5487c0.04651-0.04649 0.04651-0.12092 0-0.15812l-0.0744-0.08371c-0.04651-0.04651-0.12091-0.04651-0.15814 0l-1.5255 1.5069-0.64182-0.64183c-0.03721-0.04651-0.11162-0.04651-0.15813 0l-0.07441 0.07443c-0.04651 0.04649-0.04651 0.1116 0 0.15812l0.79995 0.80926c0.03721 0.0372 0.11162 0.0372 0.15813 0z" clip-path="url(#clipPath1032)" fill="#15c39a" style="stroke-width:.26458"/>
 </g>
</svg>
