<svg width="61" height="61" viewBox="0 0 61 61" fill="none" xmlns="http://www.w3.org/2000/svg">
<g filter="url(#filter0_d_56_68)">
<path d="M30.5 0.59375C16.0508 0.59375 4.34375 12.3008 4.34375 26.75C4.34375 41.1992 16.0508 52.9062 30.5 52.9062C44.9492 52.9062 56.6562 41.1992 56.6562 26.75C56.6562 12.3008 44.9492 0.59375 30.5 0.59375ZM53.2812 26.75C53.2812 39.3008 43.0508 49.5312 30.5 49.5312C17.9492 49.5312 7.71875 39.4062 7.71875 26.75C7.71875 14.3047 17.8438 3.96875 30.5 3.96875C42.9453 3.96875 53.2812 14.1992 53.2812 26.75ZM37.5664 36.1367C38.0938 36.5586 38.9375 36.3477 39.2539 35.8203L40.2031 34.6602C40.625 34.0273 40.4141 33.2891 39.8867 32.8672L32.5039 27.4883V11.9844C32.5039 11.3516 31.8711 10.7188 31.2383 10.7188H29.7617C29.0234 10.7188 28.4961 11.3516 28.4961 11.9844V28.8594C28.4961 29.2812 28.6016 29.5977 28.918 29.9141L37.5664 36.1367Z" fill="white"/>
</g>
<defs>
<filter id="filter0_d_56_68" x="0.34375" y="0.59375" width="60.3125" height="60.3125" filterUnits="userSpaceOnUse" color-interpolation-filters="sRGB">
<feFlood flood-opacity="0" result="BackgroundImageFix"/>
<feColorMatrix in="SourceAlpha" type="matrix" values="0 0 0 0 0 0 0 0 0 0 0 0 0 0 0 0 0 0 127 0" result="hardAlpha"/>
<feOffset dy="4"/>
<feGaussianBlur stdDeviation="2"/>
<feComposite in2="hardAlpha" operator="out"/>
<feColorMatrix type="matrix" values="0 0 0 0 0 0 0 0 0 0 0 0 0 0 0 0 0 0 0.25 0"/>
<feBlend mode="normal" in2="BackgroundImageFix" result="effect1_dropShadow_56_68"/>
<feBlend mode="normal" in="SourceGraphic" in2="effect1_dropShadow_56_68" result="shape"/>
</filter>
</defs>
</svg>
