<svg width="28" height="25" viewBox="0 0 28 25" fill="none" xmlns="http://www.w3.org/2000/svg">
<path d="M11.6875 24C11.8281 24.0469 12.0156 23.9531 12.0156 23.8125L18.625 0.703125C18.6719 0.5625 18.5781 0.421875 18.4375 0.375L17.2656 0.046875C17.125 0 16.9844 0.09375 16.9375 0.234375L10.3281 23.3438C10.2812 23.4844 10.375 23.625 10.5156 23.6719L11.6875 24ZM8.125 18.1406L9.01562 17.1562C9.10938 17.0625 9.10938 16.9219 8.96875 16.8281L3.29688 12L8.96875 7.21875C9.10938 7.125 9.10938 6.98438 9.01562 6.89062L8.125 5.90625C8.07812 5.8125 7.89062 5.8125 7.79688 5.90625L1.04688 11.8594C0.953125 11.9531 0.953125 12.0938 1.04688 12.1875L7.79688 18.1406C7.89062 18.2344 8.07812 18.2344 8.125 18.1406ZM21.1562 18.1406L27.9062 12.1875C28 12.0938 28 11.9531 27.9062 11.8594L21.1562 5.90625C21.0625 5.8125 20.9219 5.8125 20.8281 5.90625L19.9375 6.89062C19.8438 6.98438 19.8906 7.125 19.9844 7.21875L25.6562 12L19.9844 16.8281C19.8906 16.9219 19.8438 17.0625 19.9375 17.1562L20.8281 18.1406C20.875 18.2344 21.0625 18.2344 21.1562 18.1406Z" fill="#292944"/>
</svg>
