<svg width="70" height="56" viewBox="0 0 70 56" fill="none" xmlns="http://www.w3.org/2000/svg">
<g filter="url(#filter0_d_56_52)">
<path d="M65.1367 43.3672C65.1367 43.2617 62.8164 40.7305 61.2344 37.5664C64.082 34.7188 65.875 31.1328 65.875 27.125C65.875 18.6875 57.7539 11.7266 47.207 10.5664C43.9375 4.44922 36.1328 0.125 27.0625 0.125C14.9336 0.125 5.125 7.71875 5.125 17C5.125 20.9023 6.8125 24.4883 9.76562 27.4414C8.07812 30.6055 5.75781 33.1367 5.75781 33.2422C5.125 33.875 4.91406 34.9297 5.23047 35.8789C5.65234 36.7227 6.49609 37.3555 7.55078 37.3555C13.1406 37.3555 17.6758 35.1406 20.7344 33.2422C21.6836 33.4531 22.6328 33.5586 23.6875 33.7695C26.957 39.7812 34.7617 44.1055 43.9375 44.1055C46.0469 44.1055 48.1562 43.7891 50.1602 43.3672C53.2188 45.2656 57.7539 47.4805 63.4492 47.4805C64.3984 47.4805 65.2422 46.8477 65.6641 46.0039C65.9805 45.0547 65.875 44 65.1367 43.3672ZM21.4727 29.8672L20.1016 29.5508L18.8359 30.3945C16.7266 31.7656 13.5625 33.3477 9.66016 33.7695C10.5039 32.6094 11.7695 30.9219 12.7188 28.918L13.8789 26.7031L12.0859 25.0156C10.3984 23.3281 8.5 20.6914 8.5 17C8.5 9.61719 16.832 3.5 27.0625 3.5C37.293 3.5 45.625 9.61719 45.625 17C45.625 24.4883 37.293 30.5 27.0625 30.5C25.1641 30.5 23.2656 30.2891 21.4727 29.8672ZM52.0586 40.5195L50.793 39.6758L49.4219 40.0977C47.6289 40.5195 45.7305 40.7305 43.9375 40.7305C36.9766 40.7305 31.0703 37.9883 27.8008 33.875C39.5078 33.5586 49 26.1758 49 17C49 16.0508 48.7891 15.1016 48.5781 14.1523C56.5938 15.6289 62.5 20.9023 62.5 27.125C62.5 30.8164 60.4961 33.4531 58.8086 35.1406L57.1211 36.8281L58.1758 39.043C59.125 41.0469 60.3906 42.7344 61.2344 43.8945C57.332 43.4727 54.168 41.8906 52.0586 40.5195Z" fill="white"/>
</g>
<defs>
<filter id="filter0_d_56_52" x="0.914062" y="0.125" width="69.0664" height="55.3555" filterUnits="userSpaceOnUse" color-interpolation-filters="sRGB">
<feFlood flood-opacity="0" result="BackgroundImageFix"/>
<feColorMatrix in="SourceAlpha" type="matrix" values="0 0 0 0 0 0 0 0 0 0 0 0 0 0 0 0 0 0 127 0" result="hardAlpha"/>
<feOffset dy="4"/>
<feGaussianBlur stdDeviation="2"/>
<feComposite in2="hardAlpha" operator="out"/>
<feColorMatrix type="matrix" values="0 0 0 0 0 0 0 0 0 0 0 0 0 0 0 0 0 0 0.25 0"/>
<feBlend mode="normal" in2="BackgroundImageFix" result="effect1_dropShadow_56_52"/>
<feBlend mode="normal" in="SourceGraphic" in2="effect1_dropShadow_56_52" result="shape"/>
</filter>
</defs>
</svg>
