<svg width="21" height="22" viewBox="0 0 21 22" fill="none" xmlns="http://www.w3.org/2000/svg">
<path d="M14.3145 2.79883C13.4531 2.10156 11.9766 0.625 10.5 0.625C8.98242 0.625 7.54688 2.06055 6.64453 2.79883C5.25 3.90625 2.17383 6.4082 0.697266 7.59766C0.246094 7.9668 0 8.5 0 9.11523V19.6562C0 20.7637 0.861328 21.625 1.96875 21.625H19.0312C20.0977 21.625 21 20.7637 21 19.6562V9.11523C21 8.5 20.7129 7.9668 20.2617 7.59766C18.7852 6.4082 15.709 3.90625 14.3145 2.79883ZM19.0312 20.3125H1.96875C1.59961 20.3125 1.3125 20.0254 1.3125 19.6562V9.11523C1.3125 8.91016 1.39453 8.70508 1.51758 8.58203C2.625 7.7207 6.52148 4.5625 7.46484 3.82422C8.20312 3.25 9.51562 1.9375 10.5 1.9375C11.4434 1.9375 12.7559 3.25 13.4941 3.82422C14.4375 4.5625 18.334 7.7207 19.4414 8.58203C19.5645 8.70508 19.6875 8.91016 19.6875 9.11523V19.6562C19.6875 20.0254 19.3594 20.3125 19.0312 20.3125ZM18.6621 11.4531L18.457 11.207C18.293 11.002 17.9648 10.9609 17.7598 11.125C16.8164 11.9043 15.5039 12.9297 13.4941 14.5293C12.7969 15.1035 11.4434 16.416 10.5 16.375C9.51562 16.416 8.16211 15.1035 7.46484 14.5293C5.45508 12.9297 4.14258 11.9043 3.19922 11.125C2.99414 10.9609 2.66602 11.002 2.50195 11.207L2.29688 11.4531C2.13281 11.6582 2.17383 11.9863 2.37891 12.1504C3.32227 12.9297 4.63477 13.9551 6.64453 15.5547C7.50586 16.252 8.98242 17.7285 10.459 17.6875C11.9766 17.7285 13.4531 16.252 14.3145 15.5547C16.3242 13.9551 17.6367 12.9297 18.5801 12.1504C18.7852 11.9863 18.8262 11.6582 18.6621 11.4531Z" fill="#F7AA00"/>
</svg>
