<svg width="55" height="55" viewBox="0 0 55 55" fill="none" xmlns="http://www.w3.org/2000/svg">
<path d="M20.75 24.375C20.75 22.582 19.168 21 17.375 21H14C10.2031 21 7.25 24.0586 7.25 27.75V34.5C7.25 38.1914 10.2031 41.25 14 41.25H17.375C19.168 41.25 20.75 39.7734 20.75 37.875V24.375ZM17.375 37.875H14C12.1016 37.875 10.625 36.3984 10.625 34.5V27.75C10.625 25.957 12.1016 24.375 14 24.375H17.375V37.875ZM41 41.25C44.6914 41.25 47.75 38.1914 47.75 34.5V27.75C47.75 24.0586 44.6914 21 41 21H37.625C35.7266 21 34.25 22.582 34.25 24.375V37.875C34.25 39.7734 35.7266 41.25 37.625 41.25H41ZM37.625 24.375H41C42.793 24.375 44.375 25.957 44.375 27.75V34.5C44.375 36.3984 42.793 37.875 41 37.875H37.625V24.375ZM27.5 0.75C12.418 0.75 0.816406 13.1953 0.5 27.75V30.2812C0.5 30.8086 0.816406 31.125 1.34375 31.125H3.03125C3.45312 31.125 3.875 30.8086 3.875 30.2812V27.75C4.19141 15.0938 14.3164 4.125 27.5 4.125C40.4727 4.125 51.125 14.7773 51.125 27.75V46.3125C51.125 49.1602 48.8047 51.375 46.0625 51.375H37.3086C37.4141 50.8477 37.625 50.3203 37.625 49.6875C37.625 46.9453 35.3047 44.625 32.5625 44.625H25.8125C22.9648 44.625 20.75 46.9453 20.75 49.6875C20.75 52.5352 22.9648 54.75 25.8125 54.75H46.0625C50.7031 54.75 54.5 51.0586 54.5 46.3125V27.75C54.5 12.8789 42.3711 0.75 27.5 0.75ZM32.5625 51.375H25.8125C24.8633 51.375 24.125 50.6367 24.125 49.6875C24.125 48.8438 24.8633 48 25.8125 48H32.5625C33.4062 48 34.25 48.8438 34.25 49.6875C34.25 50.6367 33.4062 51.375 32.5625 51.375Z" fill="#F7AA00"/>
</svg>
