<svg width="69" height="55" viewBox="0 0 69 55" fill="none" xmlns="http://www.w3.org/2000/svg">
<path d="M66.5625 44.625H63.1875V31.125C63.1875 29.332 61.8164 27.75 60.1289 27.75H35.7656C34.0781 27.75 32.707 29.332 32.707 31.125V44.625H29.332C28.4883 44.625 27.6445 45.4688 27.6445 46.3125V50.3203C27.75 52.7461 29.7539 54.75 32.1797 54.75H63.7148C66.1406 54.75 68.1445 52.7461 68.25 50.3203V46.3125C68.25 45.4688 67.4062 44.625 66.5625 44.625ZM36.082 31.125H59.8125V44.625H36.1875L36.082 31.125ZM64.875 50.3203C64.7695 50.9531 64.3477 51.375 63.7148 51.375H32.1797C31.5469 51.375 31.0195 50.9531 31.0195 50.3203V48H64.875V50.3203ZM21.5273 17.625C20.2617 17.7305 19.207 18.6797 19.207 19.9453V28.9102C19.207 30.1758 20.2617 31.125 21.5273 31.125H29.332C29.332 28.5938 30.7031 26.4844 32.707 25.2188V19.9453C32.707 18.6797 31.7578 17.7305 30.4922 17.625H21.5273ZM29.332 27.75H22.582V21H29.332V27.75ZM10.7695 39.5625V18.4688C10.7695 18.3633 10.7695 18.2578 10.7695 18.0469L25.957 4.75781L41.1445 18.0469V24.375H44.5195V21L48.5273 24.375H50.6367C51.0586 24.1641 51.2695 23.6367 51.2695 23.1094C51.2695 22.6875 51.0586 22.2656 50.7422 21.8438L44.625 16.4648V5.8125C44.625 4.96875 43.7812 4.125 42.9375 4.125C41.9883 4.125 41.25 4.96875 41.25 5.8125V13.5117L27.1172 1.17188C26.8008 0.960938 26.3789 0.855469 25.957 0.855469C25.5352 0.855469 25.2188 0.960938 24.9023 1.17188L1.27734 21.8438C0.960938 22.2656 0.75 22.6875 0.75 23.1094C0.75 24.0586 1.48828 24.7969 2.4375 24.7969C2.75391 24.7969 3.17578 24.6914 3.49219 24.4805L7.39453 21V39.5625C7.39453 42.4102 9.71484 44.625 12.457 44.625H24.2695V41.25H12.457C11.6133 41.25 10.7695 40.5117 10.7695 39.5625Z" fill="#F7AA00"/>
</svg>
