<svg width="70" height="63" viewBox="0 0 70 63" fill="none" xmlns="http://www.w3.org/2000/svg">
<g filter="url(#filter0_d_56_60)">
<path d="M62.7109 1.80469C62.3945 1.17188 61.7617 0.75 61.1289 0.75C60.6016 0.75 60.0742 1.06641 59.6523 1.69922C56.3828 7.39453 50.582 10.875 43.9375 10.875H35.5C24.3203 10.875 15.25 19.9453 15.25 31.125C15.25 33.3398 15.5664 35.4492 16.1992 37.4531C8.18359 44.3086 5.23047 52.4297 5.125 52.5352C4.91406 53.3789 5.33594 54.4336 6.17969 54.75C7.02344 54.9609 8.07812 54.5391 8.39453 53.6953C8.39453 53.5898 10.9258 46.8398 17.5703 40.7227C21.0508 47.0508 27.6953 51.375 35.5 51.375C36.1328 51.375 36.8711 51.375 37.6094 51.2695C54.168 50.1094 65.875 35.2383 65.875 17.0977C65.875 11.8242 64.7148 6.33984 62.7109 1.80469ZM37.293 48C36.6602 48 36.0273 48 35.5 48C28.75 48 23.0547 44.0977 20.3125 38.5078C25.7969 34.3945 33.3906 31.125 43.9375 31.125C44.7812 31.125 45.625 30.3867 45.625 29.4375C45.625 28.5938 44.7812 27.75 43.9375 27.75C33.0742 27.75 25.0586 31.0195 19.1523 35.2383C18.8359 33.8672 18.625 32.6016 18.625 31.125C18.625 21.8438 26.1133 14.25 35.5 14.25H43.9375C50.582 14.25 56.6992 11.2969 60.707 6.12891C61.8672 9.60938 62.5 13.4062 62.5 17.0977C62.5 33.8672 51.8477 46.8398 37.293 48Z" fill="white"/>
</g>
<defs>
<filter id="filter0_d_56_60" x="0.914062" y="0.75" width="68.9609" height="62.2109" filterUnits="userSpaceOnUse" color-interpolation-filters="sRGB">
<feFlood flood-opacity="0" result="BackgroundImageFix"/>
<feColorMatrix in="SourceAlpha" type="matrix" values="0 0 0 0 0 0 0 0 0 0 0 0 0 0 0 0 0 0 127 0" result="hardAlpha"/>
<feOffset dy="4"/>
<feGaussianBlur stdDeviation="2"/>
<feComposite in2="hardAlpha" operator="out"/>
<feColorMatrix type="matrix" values="0 0 0 0 0 0 0 0 0 0 0 0 0 0 0 0 0 0 0.25 0"/>
<feBlend mode="normal" in2="BackgroundImageFix" result="effect1_dropShadow_56_60"/>
<feBlend mode="normal" in="SourceGraphic" in2="effect1_dropShadow_56_60" result="shape"/>
</filter>
</defs>
</svg>
