<svg width="18" height="15" viewBox="0 0 18 15" fill="none" xmlns="http://www.w3.org/2000/svg">
<path d="M3.09375 0.21875H1.40625C1.08984 0.21875 0.84375 0.5 0.84375 0.78125V2.46875C0.84375 2.78516 1.08984 3.03125 1.40625 3.03125H3.09375C3.375 3.03125 3.65625 2.78516 3.65625 2.46875V0.78125C3.65625 0.5 3.375 0.21875 3.09375 0.21875ZM3.09375 5.84375H1.40625C1.08984 5.84375 0.84375 6.125 0.84375 6.40625V8.09375C0.84375 8.41016 1.08984 8.65625 1.40625 8.65625H3.09375C3.375 8.65625 3.65625 8.41016 3.65625 8.09375V6.40625C3.65625 6.125 3.375 5.84375 3.09375 5.84375ZM3.09375 11.4688H1.40625C1.08984 11.4688 0.84375 11.75 0.84375 12.0312V13.7188C0.84375 14.0352 1.08984 14.2812 1.40625 14.2812H3.09375C3.375 14.2812 3.65625 14.0352 3.65625 13.7188V12.0312C3.65625 11.75 3.375 11.4688 3.09375 11.4688ZM17.7188 12.3125H5.90625C5.73047 12.3125 5.625 12.4531 5.625 12.5938V13.1562C5.625 13.332 5.73047 13.4375 5.90625 13.4375H17.7188C17.8594 13.4375 18 13.332 18 13.1562V12.5938C18 12.4531 17.8594 12.3125 17.7188 12.3125ZM17.7188 1.0625H5.90625C5.73047 1.0625 5.625 1.20312 5.625 1.34375V1.90625C5.625 2.08203 5.73047 2.1875 5.90625 2.1875H17.7188C17.8594 2.1875 18 2.08203 18 1.90625V1.34375C18 1.20312 17.8594 1.0625 17.7188 1.0625ZM17.7188 6.6875H5.90625C5.73047 6.6875 5.625 6.82812 5.625 6.96875V7.53125C5.625 7.70703 5.73047 7.8125 5.90625 7.8125H17.7188C17.8594 7.8125 18 7.70703 18 7.53125V6.96875C18 6.82812 17.8594 6.6875 17.7188 6.6875Z" fill="#F7AA00"/>
</svg>
