<svg width="25" height="25" viewBox="0 0 25 25" fill="none" xmlns="http://www.w3.org/2000/svg">
<path d="M23.8281 2.17188L19.1406 1.04688C18.4375 0.90625 17.7344 1.23438 17.4531 1.89062L15.25 7C15.0156 7.60938 15.1562 8.3125 15.6719 8.6875L18.2031 10.75C16.6094 14.0312 13.9844 16.6562 10.7031 18.25L8.64062 15.7188C8.26562 15.2031 7.5625 15.0625 6.95312 15.2969L1.84375 17.5C1.23438 17.7812 0.859375 18.4844 1 19.1406L2.125 23.875C2.26562 24.5312 2.82812 25 3.53125 25C15.3438 25 25 15.4375 25 3.57812C25 2.875 24.5312 2.3125 23.8281 2.17188ZM3.57812 23.5L2.5 18.8594L7.51562 16.7031L10.3281 20.125C15.1562 17.8281 17.7812 15.2031 20.0781 10.375L16.6562 7.5625L18.8125 2.54688L23.4531 3.625C23.4531 14.5938 14.5469 23.5 3.57812 23.5Z" fill="#292944"/>
</svg>
