<svg width="22" height="22" viewBox="0 0 22 22" fill="none" xmlns="http://www.w3.org/2000/svg">
<path d="M20.8359 20.3945L15.5449 15.1035C15.4629 15.0215 15.3398 14.9805 15.2168 14.9805H14.7656C16.2012 13.4219 17.0625 11.4121 17.0625 9.15625C17.0625 4.48047 13.207 0.625 8.53125 0.625C3.81445 0.625 0 4.48047 0 9.15625C0 13.873 3.81445 17.6875 8.53125 17.6875C10.7461 17.6875 12.7969 16.8262 14.3145 15.4316V15.8418C14.3145 16.0059 14.3555 16.1289 14.4375 16.2109L19.7285 21.502C19.9336 21.707 20.2207 21.707 20.4258 21.502L20.8359 21.0918C21.041 20.8867 21.041 20.5996 20.8359 20.3945ZM8.53125 16.375C4.51172 16.375 1.3125 13.1758 1.3125 9.15625C1.3125 5.17773 4.51172 1.9375 8.53125 1.9375C12.5098 1.9375 15.75 5.17773 15.75 9.15625C15.75 13.1758 12.5098 16.375 8.53125 16.375Z" fill="#F7AA00"/>
</svg>
