<svg width="51" height="55" viewBox="0 0 51 55" fill="none" xmlns="http://www.w3.org/2000/svg">
<path d="M47.6484 9.60938L27.3984 1.17188C26.7656 0.960938 26.1328 0.855469 25.5 0.855469C24.7617 0.855469 24.1289 0.960938 23.4961 1.17188L3.24609 9.60938C1.34766 10.4531 0.1875 12.2461 0.1875 14.25C0.1875 35.2383 12.2109 49.6875 23.4961 54.4336C24.7617 54.9609 26.1328 54.9609 27.3984 54.4336C36.4688 50.6367 50.8125 37.6641 50.8125 14.25C50.8125 12.2461 49.5469 10.4531 47.6484 9.60938ZM26.1328 51.2695C25.7109 51.4805 25.1836 51.4805 24.7617 51.2695C14.5312 47.1562 3.5625 32.8125 3.5625 14.25C3.5625 13.6172 3.87891 12.9844 4.51172 12.7734L24.7617 4.33594C25.1836 4.125 25.7109 4.125 26.1328 4.33594L46.3828 12.7734C47.0156 12.9844 47.4375 13.6172 47.332 14.25C47.4375 32.8125 36.4688 47.1562 26.1328 51.2695ZM40.4766 16.9922C39.9492 16.5703 39.2109 16.5703 38.6836 16.9922L21.4922 34.0781L14.2148 26.8008C13.6875 26.2734 12.8438 26.2734 12.4219 26.8008L11.4727 27.6445C10.9453 28.1719 10.9453 28.9102 11.4727 29.4375L20.543 38.6133C21.0703 39.0352 21.8086 39.0352 22.3359 38.6133L41.3203 19.7344C41.8477 19.207 41.8477 18.4688 41.3203 17.9414L40.4766 16.9922Z" fill="#031565"/>
</svg>
