<svg width="22" height="17" viewBox="0 0 22 17" fill="none" xmlns="http://www.w3.org/2000/svg">
<path d="M6.94727 7.11523C6.86523 7.07422 6.7832 7.0332 6.70117 7.0332C6.61914 7.0332 6.53711 7.07422 6.49609 7.11523L3.58398 10.0273L1.98438 8.42773C1.90234 8.38672 1.82031 8.3457 1.73828 8.3457C1.65625 8.3457 1.57422 8.38672 1.49219 8.42773L1.04102 8.91992C0.958984 8.96094 0.958984 9.04297 0.958984 9.125C0.958984 9.24805 0.958984 9.33008 1.04102 9.37109L3.33789 11.668C3.37891 11.75 3.46094 11.791 3.58398 11.791C3.66602 11.791 3.74805 11.75 3.78906 11.668L7.39844 8.05859C7.48047 8.01758 7.52148 7.93555 7.52148 7.85352C7.52148 7.73047 7.48047 7.64844 7.39844 7.60742L6.94727 7.11523ZM3.54297 14.375C2.8457 14.375 2.23047 14.9902 2.23047 15.6875C2.23047 16.4258 2.8457 17 3.54297 17C4.28125 17 4.85547 16.4258 4.85547 15.6875C4.85547 14.9902 4.28125 14.375 3.54297 14.375ZM6.94727 0.552734C6.86523 0.511719 6.7832 0.470703 6.70117 0.470703C6.61914 0.470703 6.53711 0.511719 6.49609 0.552734L3.58398 3.46484L1.98438 1.86523C1.90234 1.82422 1.82031 1.7832 1.73828 1.7832C1.65625 1.7832 1.57422 1.82422 1.49219 1.86523L1.04102 2.35742C0.958984 2.39844 0.958984 2.48047 0.958984 2.5625C0.958984 2.68555 0.958984 2.76758 1.04102 2.80859L3.33789 5.10547C3.37891 5.1875 3.46094 5.22852 3.58398 5.22852C3.66602 5.22852 3.74805 5.1875 3.78906 5.10547L7.39844 1.49609C7.48047 1.45508 7.52148 1.37305 7.52148 1.29102C7.52148 1.16797 7.48047 1.08594 7.39844 1.04492L6.94727 0.552734ZM21.6309 15.0312H9.16211C8.95703 15.0312 8.83398 15.1953 8.83398 15.3594V16.0156C8.83398 16.2207 8.95703 16.3438 9.16211 16.3438H21.6309C21.7949 16.3438 21.959 16.2207 21.959 16.0156V15.3594C21.959 15.1953 21.7949 15.0312 21.6309 15.0312ZM21.6309 1.90625H9.16211C8.95703 1.90625 8.83398 2.07031 8.83398 2.23438V2.89062C8.83398 3.0957 8.95703 3.21875 9.16211 3.21875H21.6309C21.7949 3.21875 21.959 3.0957 21.959 2.89062V2.23438C21.959 2.07031 21.7949 1.90625 21.6309 1.90625ZM21.6309 8.46875H9.16211C8.95703 8.46875 8.83398 8.63281 8.83398 8.79688V9.45312C8.83398 9.6582 8.95703 9.78125 9.16211 9.78125H21.6309C21.7949 9.78125 21.959 9.6582 21.959 9.45312V8.79688C21.959 8.63281 21.7949 8.46875 21.6309 8.46875Z" fill="#F7AA00"/>
</svg>
