<svg width="27" height="20" viewBox="0 0 27 20" fill="none" xmlns="http://www.w3.org/2000/svg">
<path d="M19.6875 10.125C21.8613 10.125 23.625 8.36133 23.625 6.1875C23.625 4.01367 21.8613 2.25 19.6875 2.25C17.5137 2.25 15.75 4.01367 15.75 6.1875C15.75 8.36133 17.5137 10.125 19.6875 10.125ZM19.6875 3.5625C21.123 3.5625 22.3125 4.75195 22.3125 6.1875C22.3125 7.66406 21.123 8.8125 19.6875 8.8125C18.2109 8.8125 17.0625 7.66406 17.0625 6.1875C17.0625 4.75195 18.2109 3.5625 19.6875 3.5625ZM7.875 10.125C10.377 10.125 12.4688 8.07422 12.4688 5.53125C12.4688 3.0293 10.377 0.9375 7.875 0.9375C5.33203 0.9375 3.28125 3.0293 3.28125 5.53125C3.28125 8.07422 5.33203 10.125 7.875 10.125ZM7.875 2.25C9.67969 2.25 11.1562 3.72656 11.1562 5.53125C11.1562 7.37695 9.67969 8.8125 7.875 8.8125C6.0293 8.8125 4.59375 7.37695 4.59375 5.53125C4.59375 3.72656 6.0293 2.25 7.875 2.25ZM11.1562 10.9453C9.76172 10.9453 9.43359 11.4375 7.875 11.4375C6.27539 11.4375 5.94727 10.9453 4.55273 10.9453C3.07617 10.9453 1.64062 11.6426 0.779297 12.873C0.287109 13.6523 0 14.5547 0 15.5391V17.3438C0 18.4512 0.861328 19.3125 1.96875 19.3125H13.7812C14.8477 19.3125 15.75 18.4512 15.75 17.3438V15.5391C15.75 14.5547 15.4219 13.6523 14.9297 12.873C14.0684 11.6426 12.6328 10.9453 11.1562 10.9453ZM14.4375 17.3438C14.4375 17.7129 14.1094 18 13.7812 18H1.96875C1.59961 18 1.3125 17.7129 1.3125 17.3438V15.5391C1.3125 14.8418 1.47656 14.1855 1.88672 13.6113C2.41992 12.791 3.44531 12.2578 4.55273 12.2578C5.70117 12.2578 6.11133 12.75 7.875 12.75C9.63867 12.75 10.0078 12.2578 11.1562 12.2578C12.2637 12.2578 13.2891 12.791 13.8223 13.6113C14.2324 14.1855 14.3965 14.8418 14.3965 15.5391V17.3438H14.4375ZM25.5527 12.668C24.8555 11.6016 23.666 11.0273 22.3945 11.0273C21.2871 11.0273 21 11.4375 19.6875 11.4375C18.375 11.4375 18.0879 11.0273 16.9395 11.0273C16.4062 11.0273 15.873 11.1504 15.3809 11.3965C15.9961 12.0117 16.1191 12.3398 16.2012 12.4629C16.4473 12.4219 16.6523 12.3809 16.9395 12.3809C17.8418 12.3809 18.1699 12.791 19.6875 12.791C21.1641 12.791 21.5332 12.3809 22.3945 12.3809C23.2559 12.3809 24.0352 12.75 24.4863 13.4062C24.7734 13.8164 24.9375 14.3086 24.9375 14.8418V16.3594C24.9375 16.5645 24.7734 16.6875 24.6094 16.6875H17.0625C17.0625 17.4258 17.0625 17.6309 16.9805 18H24.6094C25.5117 18 26.25 17.3027 26.25 16.3594V14.8418C26.25 14.0215 26.0039 13.2832 25.5527 12.668Z" fill="#F7AA00"/>
</svg>
