<svg width="27" height="20" viewBox="0 0 27 20" fill="none" xmlns="http://www.w3.org/2000/svg">
<path d="M22.3125 8.8125C24.1172 8.8125 25.5938 7.37695 25.5938 5.53125C25.5938 3.72656 24.1172 2.25 22.3125 2.25C20.4668 2.25 19.0312 3.72656 19.0312 5.53125C19.0312 7.37695 20.4668 8.8125 22.3125 8.8125ZM22.3125 3.5625C23.3789 3.5625 24.2812 4.46484 24.2812 5.53125C24.2812 6.63867 23.3789 7.5 22.3125 7.5C21.2051 7.5 20.3438 6.63867 20.3438 5.53125C20.3438 4.46484 21.2051 3.5625 22.3125 3.5625ZM13.125 10.125C15.627 10.125 17.7188 8.07422 17.7188 5.53125C17.7188 3.0293 15.627 0.9375 13.125 0.9375C10.582 0.9375 8.53125 3.0293 8.53125 5.53125C8.53125 8.07422 10.582 10.125 13.125 10.125ZM13.125 2.25C14.9297 2.25 16.4062 3.72656 16.4062 5.53125C16.4062 7.37695 14.9297 8.8125 13.125 8.8125C11.2793 8.8125 9.84375 7.37695 9.84375 5.53125C9.84375 3.72656 11.2793 2.25 13.125 2.25ZM23.1328 10.125H21.4922C20.8359 10.125 20.2617 10.3301 19.7695 10.6582C20.1797 10.9453 20.5078 11.2324 20.8359 11.6016C21.041 11.5195 21.2461 11.4375 21.4922 11.4375H23.1328C24.1172 11.4375 24.9375 12.3398 24.9375 13.4062C24.9375 13.7754 25.2246 14.0625 25.5938 14.0625C25.9219 14.0625 26.25 13.7754 26.25 13.4062C26.25 11.6016 24.8145 10.125 23.1328 10.125ZM3.9375 8.8125C5.74219 8.8125 7.21875 7.37695 7.21875 5.53125C7.21875 3.72656 5.74219 2.25 3.9375 2.25C2.0918 2.25 0.65625 3.72656 0.65625 5.53125C0.65625 7.37695 2.0918 8.8125 3.9375 8.8125ZM3.9375 3.5625C5.00391 3.5625 5.90625 4.46484 5.90625 5.53125C5.90625 6.63867 5.00391 7.5 3.9375 7.5C2.83008 7.5 1.96875 6.63867 1.96875 5.53125C1.96875 4.46484 2.83008 3.5625 3.9375 3.5625ZM16.4062 10.9453C15.0117 10.9453 14.6836 11.4375 13.125 11.4375C11.5254 11.4375 11.1973 10.9453 9.80273 10.9453C8.32617 10.9453 6.89062 11.6426 6.0293 12.873C5.53711 13.6523 5.25 14.5547 5.25 15.5391V17.3438C5.25 18.4512 6.11133 19.3125 7.21875 19.3125H19.0312C20.0977 19.3125 21 18.4512 21 17.3438V15.5391C21 14.5547 20.6719 13.6523 20.1797 12.873C19.3184 11.6426 17.8828 10.9453 16.4062 10.9453ZM19.6875 17.3438C19.6875 17.7129 19.3594 18 19.0312 18H7.21875C6.84961 18 6.5625 17.7129 6.5625 17.3438V15.5391C6.5625 14.8418 6.72656 14.1855 7.13672 13.6113C7.66992 12.791 8.69531 12.2578 9.80273 12.2578C10.9512 12.2578 11.3613 12.75 13.125 12.75C14.8887 12.75 15.2578 12.2578 16.4062 12.2578C17.5137 12.2578 18.5391 12.791 19.0723 13.6113C19.4824 14.1855 19.6465 14.8418 19.6465 15.5391V17.3438H19.6875ZM6.43945 10.6582C5.94727 10.3301 5.37305 10.125 4.75781 10.125H3.11719C1.39453 10.125 0 11.6016 0 13.4062C0 13.7754 0.287109 14.0625 0.65625 14.0625C0.984375 14.0625 1.3125 13.7754 1.3125 13.4062C1.3125 12.3398 2.0918 11.4375 3.11719 11.4375H4.75781C4.96289 11.4375 5.16797 11.5195 5.37305 11.6016C5.70117 11.2324 6.0293 10.9453 6.43945 10.6582Z" fill="#292944"/>
</svg>
