<svg width="69" height="55" viewBox="0 0 69 55" fill="none" xmlns="http://www.w3.org/2000/svg">
<path d="M24.375 27.75C31.7578 27.75 37.875 21.7383 37.875 14.25C37.875 6.86719 31.7578 0.75 24.375 0.75C16.8867 0.75 10.875 6.86719 10.875 14.25C10.875 21.7383 16.8867 27.75 24.375 27.75ZM24.375 4.125C29.8594 4.125 34.5 8.76562 34.5 14.25C34.5 19.8398 29.8594 24.375 24.375 24.375C18.7852 24.375 14.25 19.8398 14.25 14.25C14.25 8.76562 18.7852 4.125 24.375 4.125ZM53.0625 24.375C44.625 24.375 37.875 31.2305 37.875 39.5625C37.875 48 44.625 54.75 53.0625 54.75C61.3945 54.75 68.25 48 68.25 39.5625C68.25 31.2305 61.3945 24.375 53.0625 24.375ZM53.0625 51.375C46.5234 51.375 41.25 46.1016 41.25 39.5625C41.25 33.1289 46.5234 27.75 53.0625 27.75C59.4961 27.75 64.875 33.1289 64.875 39.5625C64.875 46.1016 59.4961 51.375 53.0625 51.375ZM38.7188 51.375H5.8125C4.86328 51.375 4.125 50.6367 4.125 49.6875V45.3633C4.125 39.3516 8.87109 34.5 14.8828 34.5C16.9922 34.5 18.9961 36.1875 24.375 36.1875C29.6484 36.1875 31.7578 34.5 33.7617 34.5C34.2891 34.5 34.7109 34.6055 35.1328 34.7109C35.4492 33.5508 35.8711 32.4961 36.3984 31.4414C35.5547 31.2305 34.7109 31.125 33.7617 31.125C30.8086 31.125 29.332 32.8125 24.375 32.8125C19.418 32.8125 17.9414 31.125 14.8828 31.125C7.07812 31.125 0.75 37.5586 0.75 45.3633V49.6875C0.75 52.5352 2.96484 54.75 5.8125 54.75H42.3047C41.0391 53.8008 39.7734 52.7461 38.7188 51.375ZM58.7578 37.875H54.75V32.1797C54.75 31.6523 54.2227 31.125 53.6953 31.125H52.3242C51.7969 31.125 51.375 31.6523 51.375 32.1797V40.3008C51.375 40.8281 51.7969 41.25 52.3242 41.25H58.7578C59.2852 41.25 59.8125 40.8281 59.8125 40.3008V38.9297C59.8125 38.4023 59.2852 37.875 58.7578 37.875Z" fill="#031565"/>
</svg>
