<svg width="77" height="63" viewBox="0 0 77 63" fill="none" xmlns="http://www.w3.org/2000/svg">
<g filter="url(#filter0_d_56_20)">
<path d="M9.8125 51.375C8.86328 51.375 8.125 50.6367 8.125 49.6875V45.3633C8.125 39.3516 12.8711 34.6055 18.8828 34.5C20.9922 34.5 22.9961 36.1875 28.375 36.1875C33.6484 36.1875 35.7578 34.5 37.7617 34.5C38.0781 34.5 38.2891 34.6055 38.6055 34.6055C38.8164 33.4453 39.3438 32.3906 39.9766 31.4414C39.2383 31.2305 38.5 31.2305 37.7617 31.125C34.7031 31.125 33.332 32.8125 28.2695 32.8125C23.3125 32.8125 21.9414 31.125 18.8828 31.125C11.0781 31.125 4.75 37.5586 4.75 45.3633V49.6875C4.75 52.5352 6.96484 54.75 9.8125 54.75H40.1875C39.4492 53.8008 38.9219 52.6406 38.6055 51.375H9.8125ZM28.375 27.75C35.7578 27.75 41.875 21.7383 41.875 14.25C41.875 6.86719 35.7578 0.75 28.375 0.75C20.8867 0.75 14.875 6.86719 14.875 14.25C14.875 21.7383 20.8867 27.75 28.375 27.75ZM28.375 4.125C33.8594 4.125 38.5 8.76562 38.5 14.25C38.5 19.8398 33.8594 24.375 28.375 24.375C22.7852 24.375 18.25 19.8398 18.25 14.25C18.25 8.76562 22.7852 4.23047 28.375 4.125ZM57.0625 39.5625C55.1641 39.5625 53.6875 41.1445 53.6875 42.9375C53.6875 44.8359 55.1641 46.3125 57.0625 46.3125C58.8555 46.3125 60.4375 44.8359 60.4375 42.9375C60.4375 41.1445 58.8555 39.5625 57.0625 39.5625ZM67.1875 31.125H65.5V26.0625C65.5 21.4219 61.7031 17.625 57.0625 17.625C52.3164 17.625 48.625 21.4219 48.625 26.0625V31.125H46.9375C44.0898 31.125 41.875 33.4453 41.875 36.1875V49.6875C41.875 52.5352 44.0898 54.75 46.9375 54.75H67.1875C69.9297 54.75 72.25 52.5352 72.25 49.6875V36.1875C72.25 33.4453 69.9297 31.125 67.1875 31.125ZM52 26.0625C52 23.3203 54.2148 21 57.0625 21C59.8047 21 62.125 23.3203 62.125 26.0625V31.125H52V26.0625ZM68.875 49.6875C68.875 50.6367 68.0312 51.375 67.1875 51.375H46.9375C45.9883 51.375 45.25 50.6367 45.25 49.6875V36.1875C45.25 35.3438 45.9883 34.5 46.9375 34.5H67.1875C68.0312 34.5 68.875 35.3438 68.875 36.1875V49.6875Z" fill="white"/>
</g>
<defs>
<filter id="filter0_d_56_20" x="0.75" y="0.75" width="75.5" height="62" filterUnits="userSpaceOnUse" color-interpolation-filters="sRGB">
<feFlood flood-opacity="0" result="BackgroundImageFix"/>
<feColorMatrix in="SourceAlpha" type="matrix" values="0 0 0 0 0 0 0 0 0 0 0 0 0 0 0 0 0 0 127 0" result="hardAlpha"/>
<feOffset dy="4"/>
<feGaussianBlur stdDeviation="2"/>
<feComposite in2="hardAlpha" operator="out"/>
<feColorMatrix type="matrix" values="0 0 0 0 0 0 0 0 0 0 0 0 0 0 0 0 0 0 0.25 0"/>
<feBlend mode="normal" in2="BackgroundImageFix" result="effect1_dropShadow_56_20"/>
<feBlend mode="normal" in="SourceGraphic" in2="effect1_dropShadow_56_20" result="shape"/>
</filter>
</defs>
</svg>
