<svg width="24" height="17" viewBox="0 0 24 17" fill="none" xmlns="http://www.w3.org/2000/svg">
<path d="M23.2969 14.6875C22.0664 14.6465 20.918 14.2363 20.0977 13.5391C19.8516 13.334 19.4824 13.334 19.2363 13.5391C17.4727 15.0156 14.0273 15.0566 12.2227 13.5391C11.9766 13.334 11.6074 13.334 11.3613 13.5391C9.59766 15.0156 6.15234 15.0566 4.34766 13.5391C4.10156 13.334 3.73242 13.334 3.48633 13.5391C2.66602 14.2363 1.51758 14.6465 0.287109 14.6875C0.123047 14.7285 0 14.8516 0 15.0156V15.6719C0 15.877 0.123047 16.041 0.328125 16C1.64062 15.959 2.91211 15.5488 3.9375 14.8926C6.11133 16.3691 9.63867 16.3281 11.8125 14.8926C13.9863 16.3691 17.5137 16.3281 19.6875 14.8926C20.6719 15.5488 21.9434 15.959 23.2559 16C23.4609 16.041 23.625 15.877 23.625 15.6719V15.0156C23.625 14.8516 23.4609 14.7285 23.2969 14.6875ZM23.2969 10.3398C22.0664 10.2578 20.918 9.84766 20.0977 9.15039C19.8516 8.98633 19.4824 8.98633 19.2363 9.19141C17.4727 10.627 14.0273 10.668 12.2227 9.15039C11.9766 8.98633 11.6074 8.98633 11.3613 9.19141C9.59766 10.627 6.15234 10.668 4.34766 9.15039C4.10156 8.98633 3.73242 8.98633 3.48633 9.19141C2.66602 9.84766 1.51758 10.2578 0.287109 10.3398C0.123047 10.3398 0 10.4629 0 10.668V11.3242C0 11.4883 0.123047 11.6523 0.328125 11.6523C1.64062 11.5703 2.91211 11.1602 3.9375 10.5039C6.15234 11.9805 9.63867 11.9805 11.8125 10.5039C13.9863 11.9805 17.5137 11.9805 19.6875 10.5039C20.6719 11.1602 21.9434 11.5703 23.2559 11.6523C23.4609 11.6523 23.625 11.4883 23.625 11.3242V10.668C23.625 10.4629 23.4609 10.3398 23.2969 10.3398ZM23.2969 5.95117C22.0664 5.91016 20.918 5.45898 20.0977 4.80273C19.8516 4.59766 19.4824 4.59766 19.2363 4.80273C17.4727 6.2793 14.0273 6.2793 12.2227 4.80273C11.9766 4.59766 11.6074 4.59766 11.3613 4.80273C9.59766 6.2793 6.15234 6.2793 4.34766 4.80273C4.10156 4.59766 3.73242 4.59766 3.48633 4.80273C2.66602 5.45898 1.51758 5.91016 0.287109 5.95117C0.123047 5.95117 0 6.11523 0 6.2793V6.93555C0 7.09961 0.123047 7.26367 0.328125 7.26367C1.64062 7.22266 2.91211 6.8125 3.9375 6.11523C6.11133 7.5918 9.63867 7.5918 11.8125 6.11523C13.9863 7.5918 17.5137 7.5918 19.6875 6.11523C20.6719 6.8125 21.9434 7.22266 23.2559 7.26367C23.4609 7.26367 23.625 7.09961 23.625 6.93555V6.2793C23.625 6.11523 23.4609 5.95117 23.2969 5.95117ZM23.2969 1.5625C22.0664 1.52148 20.918 1.11133 20.0977 0.414062C19.8516 0.208984 19.4824 0.208984 19.2363 0.414062C17.4727 1.89062 14.0273 1.89062 12.2227 0.414062C11.9766 0.208984 11.6074 0.208984 11.3613 0.414062C9.59766 1.89062 6.15234 1.89062 4.34766 0.414062C4.10156 0.208984 3.73242 0.208984 3.48633 0.414062C2.66602 1.11133 1.51758 1.52148 0.287109 1.5625C0.123047 1.60352 0 1.72656 0 1.89062V2.54688C0 2.75195 0.123047 2.91602 0.328125 2.875C1.64062 2.83398 2.91211 2.42383 3.9375 1.72656C6.11133 3.24414 9.63867 3.20312 11.8125 1.72656C13.9863 3.24414 17.5137 3.20312 19.6875 1.72656C20.6719 2.42383 21.9434 2.83398 23.2559 2.875C23.4609 2.91602 23.625 2.75195 23.625 2.54688V1.89062C23.625 1.72656 23.4609 1.60352 23.2969 1.5625Z" fill="#292944"/>
</svg>
