<svg width="166" height="167" viewBox="0 0 166 167" fill="none" xmlns="http://www.w3.org/2000/svg">
<path d="M134.875 16.3125C134.875 7.88281 127.742 0.75 119.312 0.75H46.6875C37.9336 0.75 31.125 7.88281 31.125 16.3125V151.188C31.125 159.941 37.9336 166.75 46.6875 166.75H119.312C127.742 166.75 134.875 159.941 134.875 151.188V16.3125ZM166 35.1172C166 34.1445 165.027 33.1719 164.055 33.1719H158.219V31.2266C158.219 30.2539 157.246 29.2812 156.273 29.2812H142.656V44.8438H156.273C157.246 44.8438 158.219 44.1953 158.219 42.8984V40.9531H164.055C165.027 40.9531 166 40.3047 166 39.0078V35.1172ZM166 66.2422C166 65.2695 165.027 64.2969 164.055 64.2969H158.219V62.3516C158.219 61.3789 157.246 60.4062 156.273 60.4062H142.656V75.9688H156.273C157.246 75.9688 158.219 75.3203 158.219 74.0234V72.0781H164.055C165.027 72.0781 166 71.4297 166 70.1328V66.2422ZM166 97.3672C166 96.3945 165.027 95.4219 164.055 95.4219H158.219V93.4766C158.219 92.5039 157.246 91.5312 156.273 91.5312H142.656V107.094H156.273C157.246 107.094 158.219 106.445 158.219 105.148V103.203H164.055C165.027 103.203 166 102.555 166 101.258V97.3672ZM166 128.492C166 127.52 165.027 126.547 164.055 126.547H158.219V124.602C158.219 123.629 157.246 122.656 156.273 122.656H142.656V138.219H156.273C157.246 138.219 158.219 137.57 158.219 136.273V134.328H164.055C165.027 134.328 166 133.68 166 132.383V128.492ZM9.72656 122.656C8.42969 122.656 7.78125 123.629 7.78125 124.602V126.547H1.94531C0.648438 126.547 0 127.52 0 128.492V132.383C0 133.68 0.648438 134.328 1.94531 134.328H7.78125V136.273C7.78125 137.57 8.42969 138.219 9.72656 138.219H23.3438V122.656H9.72656ZM9.72656 91.5312C8.42969 91.5312 7.78125 92.5039 7.78125 93.4766V95.4219H1.94531C0.648438 95.4219 0 96.3945 0 97.3672V101.258C0 102.555 0.648438 103.203 1.94531 103.203H7.78125V105.148C7.78125 106.445 8.42969 107.094 9.72656 107.094H23.3438V91.5312H9.72656ZM9.72656 60.4062C8.42969 60.4062 7.78125 61.3789 7.78125 62.3516V64.2969H1.94531C0.648438 64.2969 0 65.2695 0 66.2422V70.1328C0 71.4297 0.648438 72.0781 1.94531 72.0781H7.78125V74.0234C7.78125 75.3203 8.42969 75.9688 9.72656 75.9688H23.3438V60.4062H9.72656ZM9.72656 29.2812C8.42969 29.2812 7.78125 30.2539 7.78125 31.2266V33.1719H1.94531C0.648438 33.1719 0 34.1445 0 35.1172V39.0078C0 40.3047 0.648438 40.9531 1.94531 40.9531H7.78125V42.8984C7.78125 44.1953 8.42969 44.8438 9.72656 44.8438H23.3438V29.2812H9.72656Z" fill="#031565"/><path d="M119.312 0.75H46.6875C37.9336 0.75 31.125 7.88281 31.125 16.3125V151.188C31.125 159.941 37.9336 166.75 46.6875 166.75H119.312C127.742 166.75 134.875 159.941 134.875 151.188V16.3125C134.875 7.88281 127.742 0.75 119.312 0.75ZM124.5 151.188C124.5 154.105 121.906 156.375 119.312 156.375H46.6875C43.7695 156.375 41.5 154.105 41.5 151.188V16.3125C41.5 13.7188 43.7695 11.125 46.6875 11.125H119.312C121.906 11.125 124.5 13.7188 124.5 16.3125V151.188ZM166 35.1172C166 34.1445 165.027 33.1719 164.055 33.1719H158.219V31.2266C158.219 30.2539 157.246 29.2812 156.273 29.2812H142.656V44.8438H156.273C157.246 44.8438 158.219 44.1953 158.219 42.8984V40.9531H164.055C165.027 40.9531 166 40.3047 166 39.0078V35.1172ZM166 66.2422C166 65.2695 165.027 64.2969 164.055 64.2969H158.219V62.3516C158.219 61.3789 157.246 60.4062 156.273 60.4062H142.656V75.9688H156.273C157.246 75.9688 158.219 75.3203 158.219 74.0234V72.0781H164.055C165.027 72.0781 166 71.4297 166 70.1328V66.2422ZM166 97.3672C166 96.3945 165.027 95.4219 164.055 95.4219H158.219V93.4766C158.219 92.5039 157.246 91.5312 156.273 91.5312H142.656V107.094H156.273C157.246 107.094 158.219 106.445 158.219 105.148V103.203H164.055C165.027 103.203 166 102.555 166 101.258V97.3672ZM166 128.492C166 127.52 165.027 126.547 164.055 126.547H158.219V124.602C158.219 123.629 157.246 122.656 156.273 122.656H142.656V138.219H156.273C157.246 138.219 158.219 137.57 158.219 136.273V134.328H164.055C165.027 134.328 166 133.68 166 132.383V128.492ZM9.72656 122.656C8.42969 122.656 7.78125 123.629 7.78125 124.602V126.547H1.94531C0.648438 126.547 0 127.52 0 128.492V132.383C0 133.68 0.648438 134.328 1.94531 134.328H7.78125V136.273C7.78125 137.57 8.42969 138.219 9.72656 138.219H23.3438V122.656H9.72656ZM9.72656 91.5312C8.42969 91.5312 7.78125 92.5039 7.78125 93.4766V95.4219H1.94531C0.648438 95.4219 0 96.3945 0 97.3672V101.258C0 102.555 0.648438 103.203 1.94531 103.203H7.78125V105.148C7.78125 106.445 8.42969 107.094 9.72656 107.094H23.3438V91.5312H9.72656ZM9.72656 60.4062C8.42969 60.4062 7.78125 61.3789 7.78125 62.3516V64.2969H1.94531C0.648438 64.2969 0 65.2695 0 66.2422V70.1328C0 71.4297 0.648438 72.0781 1.94531 72.0781H7.78125V74.0234C7.78125 75.3203 8.42969 75.9688 9.72656 75.9688H23.3438V60.4062H9.72656ZM9.72656 29.2812C8.42969 29.2812 7.78125 30.2539 7.78125 31.2266V33.1719H1.94531C0.648438 33.1719 0 34.1445 0 35.1172V39.0078C0 40.3047 0.648438 40.9531 1.94531 40.9531H7.78125V42.8984C7.78125 44.1953 8.42969 44.8438 9.72656 44.8438H23.3438V29.2812H9.72656Z" fill="#F7AA00"/>
    <path d="M119.312 0.75H46.6875C37.9336 0.75 31.125 7.88281 31.125 16.3125V151.188C31.125 159.941 37.9336 166.75 46.6875 166.75H119.312C127.742 166.75 134.875 159.941 134.875 151.188V16.3125C134.875 7.88281 127.742 0.75 119.312 0.75ZM124.5 151.188C124.5 154.105 121.906 156.375 119.312 156.375H46.6875C43.7695 156.375 41.5 154.105 41.5 151.188V16.3125C41.5 13.7188 43.7695 11.125 46.6875 11.125H119.312C121.906 11.125 124.5 13.7188 124.5 16.3125V151.188ZM166 35.1172C166 34.1445 165.027 33.1719 164.055 33.1719H158.219V31.2266C158.219 30.2539 157.246 29.2812 156.273 29.2812H142.656V44.8438H156.273C157.246 44.8438 158.219 44.1953 158.219 42.8984V40.9531H164.055C165.027 40.9531 166 40.3047 166 39.0078V35.1172ZM166 66.2422C166 65.2695 165.027 64.2969 164.055 64.2969H158.219V62.3516C158.219 61.3789 157.246 60.4062 156.273 60.4062H142.656V75.9688H156.273C157.246 75.9688 158.219 75.3203 158.219 74.0234V72.0781H164.055C165.027 72.0781 166 71.4297 166 70.1328V66.2422ZM166 97.3672C166 96.3945 165.027 95.4219 164.055 95.4219H158.219V93.4766C158.219 92.5039 157.246 91.5312 156.273 91.5312H142.656V107.094H156.273C157.246 107.094 158.219 106.445 158.219 105.148V103.203H164.055C165.027 103.203 166 102.555 166 101.258V97.3672ZM166 128.492C166 127.52 165.027 126.547 164.055 126.547H158.219V124.602C158.219 123.629 157.246 122.656 156.273 122.656H142.656V138.219H156.273C157.246 138.219 158.219 137.57 158.219 136.273V134.328H164.055C165.027 134.328 166 133.68 166 132.383V128.492ZM9.72656 122.656C8.42969 122.656 7.78125 123.629 7.78125 124.602V126.547H1.94531C0.648438 126.547 0 127.52 0 128.492V132.383C0 133.68 0.648438 134.328 1.94531 134.328H7.78125V136.273C7.78125 137.57 8.42969 138.219 9.72656 138.219H23.3438V122.656H9.72656ZM9.72656 91.5312C8.42969 91.5312 7.78125 92.5039 7.78125 93.4766V95.4219H1.94531C0.648438 95.4219 0 96.3945 0 97.3672V101.258C0 102.555 0.648438 103.203 1.94531 103.203H7.78125V105.148C7.78125 106.445 8.42969 107.094 9.72656 107.094H23.3438V91.5312H9.72656ZM9.72656 60.4062C8.42969 60.4062 7.78125 61.3789 7.78125 62.3516V64.2969H1.94531C0.648438 64.2969 0 65.2695 0 66.2422V70.1328C0 71.4297 0.648438 72.0781 1.94531 72.0781H7.78125V74.0234C7.78125 75.3203 8.42969 75.9688 9.72656 75.9688H23.3438V60.4062H9.72656ZM9.72656 29.2812C8.42969 29.2812 7.78125 30.2539 7.78125 31.2266V33.1719H1.94531C0.648438 33.1719 0 34.1445 0 35.1172V39.0078C0 40.3047 0.648438 40.9531 1.94531 40.9531H7.78125V42.8984C7.78125 44.1953 8.42969 44.8438 9.72656 44.8438H23.3438V29.2812H9.72656Z" fill="#F7AA00"/>
</svg>
