<svg width="61" height="61" viewBox="0 0 61 61" fill="none" xmlns="http://www.w3.org/2000/svg">
<path d="M11.0514 13.3357L3.89935 19.8186L6.37402 22.9346C7.47607 22.2495 9.68017 20.4624 10.6631 20.4624C12.8672 20.4624 14.8486 26.4344 16.7393 33.002C18.437 38.8994 20.1943 53.5537 28.2959 53.5537C37.6187 53.5537 57.2173 28.3853 57.2173 17.1836C57.2173 13.1304 56.4131 7.29736 48.3413 7.29736C39.6917 7.29736 35.4362 15.6449 34.3897 19.8186C35.1426 19.3167 37.192 18.9821 38.3213 18.9821C42.922 18.9821 41.9394 23.7509 41.312 25.6748C40.6846 27.5987 35.8613 36.9668 33.2604 36.9668C30.0817 36.9668 28.1996 23.1646 27.2795 17.1836C26.3593 11.2026 23.9753 7.9403 20.3365 7.9403C17.4255 7.9403 12.9335 11.5373 11.0514 13.3357Z" fill="white"/>
</svg>
